<svg width="32" height="32" viewBox="0 0 32 32" fill="none" xmlns="http://www.w3.org/2000/svg">
<circle cx="16" cy="16" r="16" fill="#0F0F0F"/>
<ellipse cx="16" cy="16.5" rx="7" ry="6.5" fill="white"/>
<path d="M5 16.0588L16 6L27 16.0588H23.7V25H8.3V16.0588H5ZM16 22.7647L16.792 22.0271C19.63 19.4118 21.5 17.6906 21.5 15.5782C21.5 13.8571 20.169 12.5047 18.475 12.5047C17.518 12.5047 16.605 12.9629 16 13.6782C15.6938 13.3145 15.3145 13.0215 14.8876 12.8191C14.4607 12.6167 13.9961 12.5095 13.525 12.5047C11.831 12.5047 10.5 13.8571 10.5 15.5782C10.5 17.6906 12.37 19.4118 15.208 22.0271L16 22.7647Z" fill="#FF8654"/>
</svg>
